<svg width="24" height="24" viewBox="0 0 24 24" fill="none" xmlns="http://www.w3.org/2000/svg">
<path fill-rule="evenodd" clip-rule="evenodd" d="M16.1769 4.02028C19.0427 5.5273 21 8.53198 21 11.9953C21 15.4587 19.0427 18.4727 16.1769 19.9704V18.9407C17.2726 18.2855 18.1998 17.3682 18.8741 16.2824L16.1769 15.1872V13.5211L19.1363 15.8331C19.7544 14.6911 20.1009 13.39 20.1009 11.9953C20.1009 9.05616 18.5276 6.4727 16.1769 5.04992V4.02028ZM12.0094 3C13.5078 3 14.922 3.36505 16.1769 4.02028V5.04992C15.025 4.35725 13.6764 3.9454 12.2529 3.8986L13.283 11.2652L16.1769 13.5211V15.1872L11.9906 13.493L7.83247 15.1966V13.5398L10.7451 11.2652L11.7659 3.8986C10.3236 3.9454 8.98439 4.35725 7.83247 5.04992V4.02028C9.07804 3.36505 10.5016 3 12.0094 3ZM16.1769 19.9704C14.922 20.6256 13.5078 21 12.0094 21C10.5016 21 9.07804 20.6256 7.83247 19.9797V18.9407C9.04995 19.6802 10.4828 20.1014 12.0094 20.1014C13.5265 20.1014 14.9501 19.6802 16.1769 18.9407V19.9704ZM7.83247 19.9797C4.95734 18.4727 3 15.4587 3 11.9953C3 8.53198 4.95734 5.5273 7.83247 4.02028V5.04992C5.47242 6.4727 3.89906 9.0468 3.89906 11.9953C3.89906 13.39 4.25494 14.7098 4.87305 15.8518L7.83247 13.5398V15.1966L5.14464 16.3011C5.81894 17.3775 6.73673 18.2855 7.83247 18.9407V19.9797Z" fill="#121926"/>
</svg>
